<?xml version="1.0" encoding="UTF-8" standalone="no"?>
<!DOCTYPE svg PUBLIC "-//W3C//DTD SVG 1.1//EN" "http://www.w3.org/Graphics/SVG/1.1/DTD/svg11.dtd">
<svg version="1.1" xmlns="http://www.w3.org/2000/svg" xmlns:xlink="http://www.w3.org/1999/xlink" preserveAspectRatio="xMidYMid meet" viewBox="0 0 640 640" width="640" height="640"><defs><path d="M219.76 440.91C219.79 440.91 219.82 440.9 219.84 440.9C256.07 440.9 545.87 440.9 582.1 440.9C591.02 440.9 598.86 434.99 601.31 426.41C609.3 398.44 673.24 174.66 681.23 146.68C682.95 140.65 681.74 134.17 677.97 129.17C674.19 124.16 668.29 121.21 662.02 121.21C629.46 121.21 466.67 121.21 173.65 121.21C165.08 82.65 160.32 61.22 159.37 56.94C157.34 47.8 149.23 41.29 139.86 41.29C127.87 41.29 31.97 41.29 19.98 41.29C8.94 41.29 0 50.24 0 61.27C0 72.31 8.94 81.25 19.98 81.25C30.37 81.25 113.45 81.25 123.84 81.25C126.37 92.64 192.19 388.84 195.97 405.88C174.74 415.12 159.84 436.29 159.84 460.88C159.84 493.93 186.73 520.82 219.79 520.82C256.02 520.82 545.87 520.82 582.1 520.82C593.13 520.82 602.08 511.88 602.08 500.84C602.08 489.81 593.13 480.86 582.1 480.86C545.87 480.86 256.02 480.86 219.79 480.86C208.77 480.86 199.8 471.9 199.8 460.88C199.8 449.88 208.74 440.93 219.73 440.91C219.74 440.91 219.76 440.91 219.76 440.91ZM635.53 161.18L567.02 400.94L235.81 400.94L182.53 161.18L635.53 161.18Z" id="dy8t7Sw1F"></path><path d="M260.06 640.71C293.11 640.71 320 613.82 320 580.77C320 547.71 293.11 520.82 260.06 520.82C227.01 520.82 200.12 547.71 200.12 580.77C200.12 613.82 227.01 640.71 260.06 640.71ZM280.04 580.77C280.04 591.78 271.07 600.75 260.06 600.75C249.04 600.75 240.08 591.78 240.08 580.77C240.08 569.75 249.04 560.79 260.06 560.79C271.07 560.79 280.04 569.75 280.04 580.77Z" id="b3i5UyvaQ"></path><path d="M542.14 640.71C575.19 640.71 602.08 613.82 602.08 580.77C602.08 547.71 575.19 520.82 542.14 520.82C509.09 520.82 482.2 547.71 482.2 580.77C482.2 613.82 509.09 640.71 542.14 640.71ZM562.12 580.77C562.12 591.78 553.15 600.75 542.14 600.75C531.12 600.75 522.16 591.78 522.16 580.77C522.16 569.75 531.12 560.79 542.14 560.79C553.15 560.79 562.12 569.75 562.12 580.77Z" id="b5Tt0yeLj4"></path></defs><g><g><g><use xlink:href="#dy8t7Sw1F" opacity="1" fill="#ffffff" fill-opacity="1"></use><g><use xlink:href="#dy8t7Sw1F" opacity="1" fill-opacity="0" stroke="#000000" stroke-width="1" stroke-opacity="0"></use></g></g><g><use xlink:href="#b3i5UyvaQ" opacity="1" fill="#ffffff" fill-opacity="1"></use><g><use xlink:href="#b3i5UyvaQ" opacity="1" fill-opacity="0" stroke="#000000" stroke-width="1" stroke-opacity="0"></use></g></g><g><use xlink:href="#b5Tt0yeLj4" opacity="1" fill="#ffffff" fill-opacity="1"></use><g><use xlink:href="#b5Tt0yeLj4" opacity="1" fill-opacity="0" stroke="#000000" stroke-width="1" stroke-opacity="0"></use></g></g></g></g></svg>