<?xml version="1.0" encoding="UTF-8" standalone="no"?>
<!DOCTYPE svg PUBLIC "-//W3C//DTD SVG 1.1//EN" "http://www.w3.org/Graphics/SVG/1.1/DTD/svg11.dtd">
<svg version="1.1" xmlns="http://www.w3.org/2000/svg" xmlns:xlink="http://www.w3.org/1999/xlink" preserveAspectRatio="xMidYMid meet" viewBox="0 0 640 640" width="640" height="640"><defs><path d="M200.51 423.83C200.53 423.83 200.56 423.83 200.58 423.83C233.63 423.83 498.04 423.83 531.09 423.83C539.23 423.83 546.39 418.64 548.62 411.11C555.91 386.55 614.25 190.08 621.54 165.53C623.11 160.23 622.01 154.54 618.57 150.15C615.12 145.75 609.73 143.17 604.01 143.17C574.31 143.17 425.78 143.17 158.44 143.17C150.62 109.31 146.28 90.5 145.41 86.74C143.55 78.71 136.15 73 127.61 73C116.67 73 29.17 73 18.23 73C8.16 73 0 80.85 0 90.54C0 100.23 8.16 108.08 18.23 108.08C27.71 108.08 103.51 108.08 112.99 108.08C115.29 118.08 175.35 378.13 178.8 393.09C159.43 401.19 145.84 419.78 145.84 441.37C145.84 470.39 170.37 493.99 200.53 493.99C233.58 493.99 498.04 493.99 531.09 493.99C541.16 493.99 549.32 486.14 549.32 476.45C549.32 466.76 541.16 458.91 531.09 458.91C498.04 458.91 233.58 458.91 200.53 458.91C190.48 458.91 182.3 451.04 182.3 441.37C182.3 431.71 190.45 423.86 200.48 423.83C200.49 423.83 200.51 423.83 200.51 423.83ZM579.84 178.25L517.34 388.75L215.15 388.75L166.54 178.25L579.84 178.25Z" id="cDQ82UPXj"></path><path d="M251.18 613.88C284.23 613.88 311.12 586.99 311.12 553.94C311.12 520.89 284.23 493.99 251.18 493.99C218.13 493.99 191.24 520.89 191.24 553.94C191.24 586.99 218.13 613.88 251.18 613.88ZM271.16 553.94C271.16 564.95 262.2 573.92 251.18 573.92C240.16 573.92 231.2 564.95 231.2 553.94C231.2 542.92 240.16 533.96 251.18 533.96C262.2 533.96 271.16 542.92 271.16 553.94Z" id="a2bX0POBqB"></path><path d="M488.48 613.88C521.53 613.88 548.42 586.99 548.42 553.94C548.42 520.89 521.53 493.99 488.48 493.99C455.43 493.99 428.54 520.89 428.54 553.94C428.54 586.99 455.43 613.88 488.48 613.88ZM508.46 553.94C508.46 564.95 499.49 573.92 488.48 573.92C477.46 573.92 468.5 564.95 468.5 553.94C468.5 542.92 477.46 533.96 488.48 533.96C499.49 533.96 508.46 542.92 508.46 553.94Z" id="d1q7H0P9r"></path></defs><g><g><g><use xlink:href="#cDQ82UPXj" opacity="1" fill="#ffffff" fill-opacity="1"></use><g><use xlink:href="#cDQ82UPXj" opacity="1" fill-opacity="0" stroke="#000000" stroke-width="1" stroke-opacity="0"></use></g></g><g><use xlink:href="#a2bX0POBqB" opacity="1" fill="#ffffff" fill-opacity="1"></use><g><use xlink:href="#a2bX0POBqB" opacity="1" fill-opacity="0" stroke="#000000" stroke-width="1" stroke-opacity="0"></use></g></g><g><use xlink:href="#d1q7H0P9r" opacity="1" fill="#ffffff" fill-opacity="1"></use><g><use xlink:href="#d1q7H0P9r" opacity="1" fill-opacity="0" stroke="#000000" stroke-width="1" stroke-opacity="0"></use></g></g></g></g></svg>