<?xml version="1.0" encoding="UTF-8" standalone="no"?>
<!DOCTYPE svg PUBLIC "-//W3C//DTD SVG 1.1//EN" "http://www.w3.org/Graphics/SVG/1.1/DTD/svg11.dtd">
<svg version="1.1" xmlns="http://www.w3.org/2000/svg" xmlns:xlink="http://www.w3.org/1999/xlink" preserveAspectRatio="xMidYMid meet" viewBox="0 0 640 640" width="640" height="640"><defs><path d="M288.64 428.03C261.4 403.43 43.52 206.62 16.28 182.02C-1.04 166.37 -1.04 141 16.28 125.36C33.6 109.71 61.68 109.71 79.01 125.36C95.08 139.87 175.41 212.43 320 343.04C464.59 212.43 544.92 139.88 560.99 125.36C578.31 109.72 606.4 109.72 623.71 125.36C641.05 141.01 641.05 166.38 623.71 182.03C596.48 206.63 378.59 403.43 351.36 428.03C342.7 435.85 331.35 439.76 320 439.76C308.65 439.76 297.3 435.84 288.64 428.03Z" id="eGUBUREPY"></path></defs><g><g><g><use xlink:href="#eGUBUREPY" opacity="1" fill="#ffffff" fill-opacity="1"></use><g><use xlink:href="#eGUBUREPY" opacity="1" fill-opacity="0" stroke="#000000" stroke-width="1" stroke-opacity="0"></use></g></g></g></g></svg>