<?xml version="1.0" encoding="UTF-8" standalone="no"?>
<!DOCTYPE svg PUBLIC "-//W3C//DTD SVG 1.1//EN" "http://www.w3.org/Graphics/SVG/1.1/DTD/svg11.dtd">
<svg version="1.1" xmlns="http://www.w3.org/2000/svg" xmlns:xlink="http://www.w3.org/1999/xlink" preserveAspectRatio="xMidYMid meet" viewBox="0 0 640 640" width="640" height="640"><defs><path d="M131.9 61.67L581.9 61.67L581.9 595.43L131.9 595.43L131.9 61.67Z" id="c1oGhngJ"></path><path d="M35.11 0C15.71 0 0 14.71 0 32.87C0 85.84 0 509.61 0 562.58C0 580.72 15.71 595.43 35.11 595.43C55.41 595.43 156.94 595.43 339.68 595.43L339.68 364.85L256.8 364.85L256.8 274.99L339.68 274.99C339.68 235.23 339.68 213.14 339.68 208.72C339.68 131.81 389.84 89.93 463.12 89.93C498.23 89.93 528.38 92.39 537.18 93.48C537.18 98.84 537.18 125.64 537.18 173.87C506.69 173.88 489.75 173.89 486.36 173.89C446.51 173.89 438.8 191.63 438.8 217.63C438.8 221.45 438.8 240.58 438.8 275.01L533.84 275.01L521.47 364.87L438.8 364.87L438.8 595.43C536.03 595.43 590.05 595.43 600.85 595.43C620.19 595.43 635.9 580.72 635.9 562.56C635.9 509.59 635.9 85.84 635.9 32.87C635.9 14.71 620.19 0 600.8 0C600.8 0 91.68 0 35.11 0Z" id="m2pfXQ34Co"></path></defs><g><g><g><use xlink:href="#c1oGhngJ" opacity="1" fill="#ffffff" fill-opacity="1"></use></g><g><use xlink:href="#m2pfXQ34Co" opacity="1" fill="#0072ff" fill-opacity="1"></use><g><use xlink:href="#m2pfXQ34Co" opacity="1" fill-opacity="0" stroke="#000000" stroke-width="1" stroke-opacity="0"></use></g></g></g></g></svg>