<?xml version="1.0" encoding="UTF-8" standalone="no"?>
<!DOCTYPE svg PUBLIC "-//W3C//DTD SVG 1.1//EN" "http://www.w3.org/Graphics/SVG/1.1/DTD/svg11.dtd">
<svg version="1.1" xmlns="http://www.w3.org/2000/svg" xmlns:xlink="http://www.w3.org/1999/xlink" preserveAspectRatio="xMidYMid meet" viewBox="0 0 640 640" width="640" height="640"><defs><path d="M505.24 323.57C505.24 421.86 424.1 501.67 324.17 501.67C224.23 501.67 143.1 421.86 143.1 323.57C143.1 225.28 224.23 145.48 324.17 145.48C424.1 145.48 505.24 225.28 505.24 323.57Z" id="bbHgRSf3ke"></path><path d="M640 320C640 496.44 496.46 640 320 640C143.54 640 0 496.44 0 320C0 143.55 143.54 0 320 0C496.46 0 640 143.55 640 320ZM379.45 451.21C381.64 452.63 384.17 453.33 386.67 453.33C388.85 453.33 391.07 452.79 393.05 451.71C397.34 449.36 400 444.88 400 440C400 416 400 224 400 200C400 195.12 397.34 190.64 393.05 188.29C388.83 185.98 383.54 186.12 379.45 188.79C360.79 200.79 211.45 296.79 192.79 308.79C188.98 311.24 186.67 315.47 186.67 320C186.67 324.53 188.98 328.76 192.79 331.21C230.12 355.21 360.79 439.21 379.45 451.21Z" id="a6oG4RDvf"></path></defs><g><g><g><use xlink:href="#bbHgRSf3ke" opacity="1" fill="#ffffff" fill-opacity="1"></use></g><g><use xlink:href="#a6oG4RDvf" opacity="1" fill="#000000" fill-opacity="1"></use><g><use xlink:href="#a6oG4RDvf" opacity="1" fill-opacity="0" stroke="#000000" stroke-width="1" stroke-opacity="0"></use></g></g></g></g></svg>