<?xml version="1.0" encoding="UTF-8" standalone="no"?>
<!DOCTYPE svg PUBLIC "-//W3C//DTD SVG 1.1//EN" "http://www.w3.org/Graphics/SVG/1.1/DTD/svg11.dtd">
<svg version="1.1" xmlns="http://www.w3.org/2000/svg" xmlns:xlink="http://www.w3.org/1999/xlink" preserveAspectRatio="xMidYMid meet" viewBox="0 0 640 640" width="640" height="640"><defs><path d="M499.96 49.9C431.75 36.45 363.93 66.34 328.94 125.24C326.27 129.71 320.12 140.29 320 140.13C319.88 140.29 313.73 129.71 311.06 125.24C284.12 79.88 237.71 51.74 186.65 47.33C171.4 46.01 155.73 46.81 140.04 49.9C74.19 62.89 25.22 115.24 13.63 182.24C8.44 212.2 11.09 241.23 19.62 268.75C26.05 289.52 35.84 309.43 48.14 328.25C70.87 363.03 96.22 396.76 124.65 426.93C183.02 488.89 251.51 539.42 319.99 593.28C388.49 539.42 456.98 488.89 515.33 426.93C543.76 396.76 569.12 363.02 591.85 328.25C620.46 284.49 635.47 234.81 626.37 182.24C614.78 115.24 565.81 62.89 499.96 49.9ZM106.83 147.43C95.47 159.99 89.95 176.06 91.32 192.7C92.04 201.53 85.49 209.28 76.7 210C76.25 210.03 75.82 210.06 75.38 210.06C67.15 210.06 60.15 203.7 59.47 195.32C57.41 170.09 66.06 144.77 83.19 125.84C99.96 107.32 123.29 96.51 147.19 96.2C155.94 96 163.25 103.17 163.38 112.03C163.48 120.9 156.44 128.17 147.61 128.29C132.53 128.49 117.68 135.47 106.83 147.43Z" id="aazUQqQMb"></path><path d="M249.27 299.67L265.12 326.5L277.32 352.11" id="aQBBWnGLG"></path><path d="M240.73 285.04L199.27 285.04L172.44 285.04L140.73 285.04" id="gn9th06T2"></path></defs><g><g><g><use xlink:href="#aazUQqQMb" opacity="1" fill="#ff5454" fill-opacity="0"></use><g><use xlink:href="#aazUQqQMb" opacity="1" fill-opacity="0" stroke="#ffffff" stroke-width="20" stroke-opacity="1"></use></g></g><g><g><use xlink:href="#aQBBWnGLG" opacity="1" fill-opacity="0" stroke="#400d0d" stroke-width="1" stroke-opacity="0"></use></g></g><g><g><use xlink:href="#gn9th06T2" opacity="1" fill-opacity="0" stroke="#400d0d" stroke-width="1" stroke-opacity="0"></use></g></g></g></g></svg>