<?xml version="1.0" encoding="UTF-8" standalone="no"?>
<!DOCTYPE svg PUBLIC "-//W3C//DTD SVG 1.1//EN" "http://www.w3.org/Graphics/SVG/1.1/DTD/svg11.dtd">
<svg version="1.1" xmlns="http://www.w3.org/2000/svg" xmlns:xlink="http://www.w3.org/1999/xlink" preserveAspectRatio="xMidYMid meet" viewBox="0 0 640 640" width="640" height="640"><defs><path d="M427.02 10.22C433.61 3.63 442.4 0 451.78 0C461.15 0 469.95 3.63 476.53 10.22C478.63 12.32 495.41 29.1 497.51 31.19C511.16 44.86 511.16 67.06 497.51 80.71C481.56 96.65 401.84 176.37 258.35 319.87C402 463.52 481.81 543.33 497.77 559.29C504.36 565.89 508 574.67 508 584.04C508 593.43 504.36 602.21 497.77 608.81C495.68 610.91 478.9 627.68 476.8 629.78C470.21 636.37 461.42 640 452.04 640C442.67 640 433.87 636.37 427.29 629.78C398.78 601.27 170.72 373.22 142.21 344.71C135.61 338.1 131.98 329.27 132 319.88C131.98 310.46 135.61 301.64 142.21 295.03C199.17 238.07 398.54 38.7 427.02 10.22Z" id="f1838wj0Af"></path></defs><g><g><g><use xlink:href="#f1838wj0Af" opacity="1" fill="#ffffff" fill-opacity="1"></use><g><use xlink:href="#f1838wj0Af" opacity="1" fill-opacity="0" stroke="#000000" stroke-width="1" stroke-opacity="0"></use></g></g></g></g></svg>