<?xml version="1.0" encoding="iso-8859-1"?>
<!-- Generator: Adobe Illustrator 16.0.0, SVG Export Plug-In . SVG Version: 6.00 Build 0)  -->
<!DOCTYPE svg PUBLIC "-//W3C//DTD SVG 1.1//EN" "http://www.w3.org/Graphics/SVG/1.1/DTD/svg11.dtd">
<svg version="1.1" id="Capa_1" xmlns="http://www.w3.org/2000/svg" xmlns:xlink="http://www.w3.org/1999/xlink" x="0px" y="0px"
	 width="354.621px" height="354.621px" viewBox="0 0 354.621 354.621" style="enable-background:new 0 0 354.621 354.621;"
	 xml:space="preserve">
<g>
	<path d="M347.752,65.201c-4.428-3.553-10.205-4.769-16.262-3.418L194.168,92.316c-9.115,2.026-24.456,1.827-33.505-0.432
		L23.267,57.597l136.126-28.41c9.19-1.92,24.707-1.88,33.892,0.085l104.072,22.267c2.357,0.507,4.686-0.995,5.189-3.359
		c0.506-2.362-0.998-4.686-3.359-5.189L195.115,20.723c-10.336-2.213-27.164-2.254-37.507-0.096L20.658,49.211
		c-2.665,0.556-10.776,2.25-10.892,8.124c-0.113,5.875,7.926,7.882,10.568,8.541l138.21,34.493
		c10.31,2.571,27.141,2.792,37.522,0.482l137.324-30.534c3.414-0.757,6.574-0.153,8.893,1.705c2.318,1.86,3.596,4.813,3.596,8.314
		v188.611c0,8.067-6.588,16.642-14.383,18.72l-53.914,14.372v-50.228h17.242c2.9,0,5.188-1.27,6.271-3.481
		c1.084-2.214,0.688-4.797-1.09-7.089l-33.029-42.621c-1.557-2.008-3.83-3.118-6.197-3.132c-2.385,0.018-4.627,1.195-6.158,3.231
		l-31.9,42.532c-1.73,2.308-2.092,4.894-0.992,7.096c1.102,2.203,3.389,3.466,6.273,3.466h16.004v59.078l-50.219,14.123
		c-8.93,2.415-24.016,2.415-32.948,0.002l-137.714-37.18c-7.797-2.105-14.382-10.706-14.382-18.781V92.836
		c0-2.415-1.957-4.371-4.371-4.371C1.957,88.465,0,90.421,0,92.836v176.221c0,12.108,9.156,24.065,20.845,27.222l137.715,37.18
		c5.25,1.42,11.983,2.128,18.728,2.128c6.763,0,13.537-0.713,18.824-2.142l53.559-15.062c2.219-0.624,3.168-2.724,3.08-5.079V247.44
		c0-2.414-1.957-4.371-4.373-4.371l-16.088-0.002l28.561-38.078l29.51,38.08h-17.15c-2.414,0-4.371,1.957-4.371,4.371v60.138
		c0,2.414,1.957,4.371,4.371,4.371c0.678,0,1.318-0.046,1.695-0.147l58.842-15.685c11.703-3.121,20.875-15.055,20.875-27.169V80.337
		C354.623,74.13,352.182,68.756,347.752,65.201z"/>
</g>
<g>
</g>
<g>
</g>
<g>
</g>
<g>
</g>
<g>
</g>
<g>
</g>
<g>
</g>
<g>
</g>
<g>
</g>
<g>
</g>
<g>
</g>
<g>
</g>
<g>
</g>
<g>
</g>
<g>
</g>
</svg>
