<?xml version="1.0" encoding="UTF-8" standalone="no"?>
<!DOCTYPE svg PUBLIC "-//W3C//DTD SVG 1.1//EN" "http://www.w3.org/Graphics/SVG/1.1/DTD/svg11.dtd">
<svg version="1.1" xmlns="http://www.w3.org/2000/svg" xmlns:xlink="http://www.w3.org/1999/xlink" preserveAspectRatio="xMidYMid meet" viewBox="0 0 640 640" width="640" height="640"><defs><path d="M22.86 91.43C10.23 91.43 0 101.66 0 114.29C0 155.43 0 484.57 0 525.71C0 538.34 10.23 548.57 22.86 548.57C82.29 548.57 557.71 548.57 617.14 548.57C629.77 548.57 640 538.34 640 525.71C640 484.57 640 155.43 640 114.29C640 101.66 629.77 91.43 617.14 91.43C498.29 91.43 82.29 91.43 22.86 91.43ZM320 336.87L60.34 137.14L579.66 137.14L320 336.87ZM45.71 502.86L45.71 183.57C201.93 303.73 288.72 370.49 306.08 383.84C314.29 390.14 325.71 390.14 333.92 383.84C351.28 370.49 438.07 303.73 594.28 183.57L594.28 502.86L45.71 502.86Z" id="e6wVvmY4io"></path></defs><g><g><g><use xlink:href="#e6wVvmY4io" opacity="1" fill="#ffffff" fill-opacity="1"></use><g><use xlink:href="#e6wVvmY4io" opacity="1" fill-opacity="0" stroke="#000000" stroke-width="1" stroke-opacity="0"></use></g></g></g></g></svg>