<?xml version="1.0" encoding="UTF-8" standalone="no"?>
<!DOCTYPE svg PUBLIC "-//W3C//DTD SVG 1.1//EN" "http://www.w3.org/Graphics/SVG/1.1/DTD/svg11.dtd">
<svg version="1.1" xmlns="http://www.w3.org/2000/svg" xmlns:xlink="http://www.w3.org/1999/xlink" preserveAspectRatio="xMidYMid meet" viewBox="0 0 640 640" width="640" height="640"><defs><path d="M212.98 10.22C206.39 3.63 197.6 0 188.22 0C178.85 0 170.05 3.63 163.47 10.22C161.37 12.32 144.59 29.1 142.49 31.19C128.84 44.86 128.84 67.06 142.49 80.71C158.44 96.65 238.16 176.37 381.65 319.87C238 463.52 158.19 543.33 142.23 559.29C135.64 565.89 132 574.67 132 584.04C132 593.43 135.64 602.21 142.23 608.81C144.32 610.91 161.1 627.68 163.2 629.78C169.79 636.37 178.58 640 187.96 640C197.33 640 206.13 636.37 212.72 629.78C241.22 601.27 469.28 373.22 497.79 344.71C504.39 338.1 508.02 329.27 508 319.88C508.02 310.46 504.39 301.64 497.79 295.03C440.83 238.07 241.46 38.7 212.98 10.22Z" id="fDfszYmGY"></path></defs><g><g><g><use xlink:href="#fDfszYmGY" opacity="1" fill="#ffffff" fill-opacity="1"></use><g><use xlink:href="#fDfszYmGY" opacity="1" fill-opacity="0" stroke="#000000" stroke-width="1" stroke-opacity="0"></use></g></g></g></g></svg>