<?xml version="1.0" encoding="UTF-8" standalone="no"?>
<!DOCTYPE svg PUBLIC "-//W3C//DTD SVG 1.1//EN" "http://www.w3.org/Graphics/SVG/1.1/DTD/svg11.dtd">
<svg version="1.1" xmlns="http://www.w3.org/2000/svg" xmlns:xlink="http://www.w3.org/1999/xlink" preserveAspectRatio="xMidYMid meet" viewBox="0 0 640 640" width="640" height="640"><defs><path d="M285.35 125.35C258.12 149.95 40.23 346.76 12.99 371.36C-4.33 387.01 -4.33 412.38 12.99 428.02C30.31 443.67 58.4 443.67 75.72 428.02C91.79 413.51 172.12 340.95 316.71 210.34C461.3 340.95 541.63 413.5 557.7 428.02C575.03 443.66 603.11 443.66 620.43 428.02C637.76 412.37 637.76 387 620.43 371.35C593.19 346.75 375.31 149.95 348.07 125.35C339.41 117.53 328.06 113.63 316.71 113.63C305.36 113.63 294.01 117.54 285.35 125.35Z" id="e1xnTOqXzL"></path></defs><g><g><g><use xlink:href="#e1xnTOqXzL" opacity="1" fill="#ffffff" fill-opacity="1"></use><g><use xlink:href="#e1xnTOqXzL" opacity="1" fill-opacity="0" stroke="#000000" stroke-width="1" stroke-opacity="0"></use></g></g></g></g></svg>