<?xml version="1.0" encoding="UTF-8" standalone="no"?>
<!DOCTYPE svg PUBLIC "-//W3C//DTD SVG 1.1//EN" "http://www.w3.org/Graphics/SVG/1.1/DTD/svg11.dtd">
<svg version="1.1" xmlns="http://www.w3.org/2000/svg" xmlns:xlink="http://www.w3.org/1999/xlink" preserveAspectRatio="xMidYMid meet" viewBox="0 0 640 640" width="640" height="640"><defs><path d="M127.45 79.78C130.83 76.85 135.7 76.38 139.57 78.62C141.28 79.61 149.85 84.56 165.27 93.46L175.2 87.73C166.08 82.46 161.01 79.53 160 78.95C156.44 76.89 154.4 72.95 154.79 68.86C155.19 64.77 157.93 61.28 161.81 59.94C177.29 54.58 301.1 11.68 316.58 6.32C319.66 5.25 322.95 5.7 325.57 7.33C325.57 7.33 635.44 186.25 635.77 186.5C637.15 187.52 638.29 188.89 639.05 190.56C639.74 192.06 640.04 193.66 640 195.22C639.99 220.19 639.97 419.98 639.97 444.96C639.97 448.71 637.97 452.17 634.72 454.05C603.77 471.93 356.2 614.97 325.26 632.86C323.63 633.8 321.82 634.26 320.01 634.26C318.2 634.26 316.38 633.8 314.76 632.86C283.81 614.99 36.2 472.05 5.25 454.18C2 452.31 0 448.84 0 445.09C0 420.09 0 220.06 0 195.06C-0.03 191.99 1.28 189.03 3.63 187C28.39 165.55 115.07 90.5 127.45 79.78ZM449.06 257.3C452 259 453.93 262.01 454.26 265.39C454.58 268.77 453.25 272.1 450.68 274.33C447.97 276.67 434.45 288.38 410.1 309.47L528.89 240.88C498.46 251.43 481.55 257.28 478.17 258.46C475.29 259.45 472.12 259.15 469.48 257.63C451.26 247.11 360.17 194.52 196.2 99.85L186.27 105.58C343.94 196.61 431.54 247.19 449.06 257.3ZM190.39 72.25L475.83 237.05L604.35 192.52L318.91 27.73L190.39 72.25ZM618.97 438.9L619 213.1L330.49 379.68L330.51 605.57L618.97 438.9ZM425.79 268.11L135.54 100.54L28.52 193.22L318.76 360.79L425.79 268.11ZM309.51 605.59L309.49 379.68L21 213.12L21 439.03L309.51 605.59Z" id="bXYTucHMY"></path></defs><g><g><g><use xlink:href="#bXYTucHMY" opacity="1" fill="#000000" fill-opacity="1"></use><g><use xlink:href="#bXYTucHMY" opacity="1" fill-opacity="0" stroke="#000000" stroke-width="1" stroke-opacity="0"></use></g></g></g></g></svg>