<?xml version="1.0" encoding="UTF-8" standalone="no"?>
<!DOCTYPE svg PUBLIC "-//W3C//DTD SVG 1.1//EN" "http://www.w3.org/Graphics/SVG/1.1/DTD/svg11.dtd">
<svg version="1.1" xmlns="http://www.w3.org/2000/svg" xmlns:xlink="http://www.w3.org/1999/xlink" preserveAspectRatio="xMidYMid meet" viewBox="0 0 640 640" width="640" height="640"><defs><path d="M210.49 179.19L472.2 179.19L472.2 471.38L210.49 471.38L210.49 179.19Z" id="a44Id9XXjR"></path><path d="M0 320C0 496.45 143.54 640 320 640C496.46 640 640 496.45 640 320C640 143.56 496.46 0 320 0C143.54 0 0 143.56 0 320ZM260.55 451.21C258.36 452.63 255.83 453.33 253.33 453.33C251.15 453.33 248.93 452.79 246.95 451.71C242.66 449.36 240 444.88 240 440C240 416 240 224 240 200C240 195.12 242.66 190.64 246.95 188.29C251.17 185.98 256.46 186.12 260.55 188.79C279.21 200.79 428.55 296.79 447.21 308.79C451.02 311.24 453.33 315.47 453.33 320C453.33 324.53 451.02 328.76 447.21 331.21C409.88 355.21 279.21 439.21 260.55 451.21Z" id="e4hQuJRMjN"></path></defs><g><g><g><use xlink:href="#a44Id9XXjR" opacity="1" fill="#000000" fill-opacity="1"></use></g><g><use xlink:href="#e4hQuJRMjN" opacity="1" fill="#ffffff" fill-opacity="1"></use><g><use xlink:href="#e4hQuJRMjN" opacity="1" fill-opacity="0" stroke="#000000" stroke-width="1" stroke-opacity="0"></use></g></g></g></g></svg>