<?xml version="1.0" encoding="UTF-8" standalone="no"?>
<!DOCTYPE svg PUBLIC "-//W3C//DTD SVG 1.1//EN" "http://www.w3.org/Graphics/SVG/1.1/DTD/svg11.dtd">
<svg version="1.1" xmlns="http://www.w3.org/2000/svg" xmlns:xlink="http://www.w3.org/1999/xlink" preserveAspectRatio="xMidYMid meet" viewBox="0 0 640 640" width="640" height="640"><defs><path d="M593.95 143.71C593.29 136.24 596.66 130.59 589.19 130.59C582.65 130.59 535.14 124.64 528.61 124.64C528.09 65.6 479.93 23.8 420.89 23.8C361.85 23.8 313.7 65.6 313.18 124.64C306.64 124.64 259.14 130.59 252.6 130.59C245.12 130.59 245.97 136.37 245.31 143.71C242.16 179.12 205.07 456.46 201.92 491.87C201.92 492.27 201.92 492.66 201.92 493.19C201.92 533.07 238.52 565.61 283.66 565.61C311.12 565.61 530.8 565.61 558.26 565.61C603.26 565.61 640 533.2 640 493.19C640 492.66 640 492.27 639.87 491.87C633.57 421.05 597.1 179.12 593.95 143.71ZM499.88 124.64C484.09 124.64 357.83 124.64 342.04 124.64C342.57 81.61 377.73 46.71 421.03 46.71C464.19 46.71 499.35 81.61 499.88 124.64ZM283.66 536.61C254.79 536.61 231.18 517.46 230.78 493.71C232.79 471.03 242.85 357.63 260.96 153.51L313.05 153.51C313.05 181.53 313.05 197.1 313.05 200.21C313.05 208.22 319.48 214.65 327.48 214.65C335.48 214.65 341.91 208.22 341.91 200.21C341.91 197.1 341.91 181.53 341.91 153.51L499.75 153.51C499.75 181.53 499.75 197.1 499.75 200.21C499.75 208.22 506.17 214.65 514.18 214.65C522.18 214.65 528.61 208.22 528.61 200.21C528.61 197.1 528.61 181.53 528.61 153.51L580.7 153.51C598.8 357.63 608.86 471.03 610.87 493.71C610.74 517.46 587.13 536.61 558.26 536.61C503.34 536.61 311.12 536.61 283.66 536.61Z" id="ewvfLovox"></path><path d="M69.41 277.29C61.4 277.29 54.97 283.72 54.97 291.73C54.97 299.73 61.4 306.16 69.41 306.16C79.3 306.16 158.44 306.16 168.33 306.16C176.33 306.16 182.76 299.73 182.76 291.73C182.76 283.72 176.33 277.29 168.33 277.29C148.55 277.29 79.3 277.29 69.41 277.29Z" id="baTPSaGUq"></path><path d="M14.43 347.62C6.43 347.62 0 354.05 0 362.05C0 370.05 6.43 376.48 14.43 376.48C29.82 376.48 152.94 376.48 168.33 376.48C176.33 376.48 182.76 370.05 182.76 362.05C182.76 354.05 176.33 347.62 168.33 347.62C137.55 347.62 29.82 347.62 14.43 347.62Z" id="i4ext4PjSN"></path><path d="M69.41 417.94C61.4 417.94 54.97 424.37 54.97 432.37C54.97 440.38 61.4 446.81 69.41 446.81C79.3 446.81 158.44 446.81 168.33 446.81C176.33 446.81 182.76 440.38 182.76 432.37C182.76 424.37 176.33 417.94 168.33 417.94C148.55 417.94 79.3 417.94 69.41 417.94Z" id="c1mOAOj2HR"></path></defs><g><g><g><use xlink:href="#ewvfLovox" opacity="1" fill="#000000" fill-opacity="1"></use><g><use xlink:href="#ewvfLovox" opacity="1" fill-opacity="0" stroke="#000000" stroke-width="1" stroke-opacity="0"></use></g></g><g><use xlink:href="#baTPSaGUq" opacity="1" fill="#000000" fill-opacity="1"></use><g><use xlink:href="#baTPSaGUq" opacity="1" fill-opacity="0" stroke="#000000" stroke-width="1" stroke-opacity="0"></use></g></g><g><use xlink:href="#i4ext4PjSN" opacity="1" fill="#000000" fill-opacity="1"></use><g><use xlink:href="#i4ext4PjSN" opacity="1" fill-opacity="0" stroke="#000000" stroke-width="1" stroke-opacity="0"></use></g></g><g><use xlink:href="#c1mOAOj2HR" opacity="1" fill="#000000" fill-opacity="1"></use><g><use xlink:href="#c1mOAOj2HR" opacity="1" fill-opacity="0" stroke="#000000" stroke-width="1" stroke-opacity="0"></use></g></g></g></g></svg>