<?xml version="1.0" encoding="UTF-8" standalone="no"?>
<!DOCTYPE svg PUBLIC "-//W3C//DTD SVG 1.1//EN" "http://www.w3.org/Graphics/SVG/1.1/DTD/svg11.dtd">
<svg version="1.1" xmlns="http://www.w3.org/2000/svg" xmlns:xlink="http://www.w3.org/1999/xlink" preserveAspectRatio="xMidYMid meet" viewBox="0 0 640 640" width="640" height="640"><defs><path d="M188.05 149.67C188.05 190.6 152.64 223.82 109.02 223.82C65.41 223.82 30 190.6 30 149.67C30 108.75 65.41 75.53 109.02 75.53C152.64 75.53 188.05 108.75 188.05 149.67Z" id="a1pszFeKS1"></path><path d="M506.35 41.47C435.72 27.6 365.49 58.41 329.26 119.15C326.49 123.77 320.12 134.67 320 134.51C319.88 134.67 313.51 123.77 310.75 119.15C274.51 58.41 204.28 27.6 133.65 41.47C65.46 54.86 14.75 108.84 2.75 177.94C-6.68 232.14 8.86 283.38 38.49 328.51C62.02 364.37 88.27 399.15 117.71 430.27C178.15 494.16 249.07 546.27 319.99 601.82C390.92 546.27 461.84 494.16 522.27 430.27C551.71 399.15 577.97 364.36 601.5 328.51C631.13 283.38 646.68 232.15 637.25 177.94C625.25 108.84 574.54 54.86 506.35 41.47ZM99.26 142.04C87.49 154.99 81.78 171.56 83.19 188.72C83.94 197.83 77.16 205.82 68.06 206.56C67.59 206.6 67.14 206.62 66.69 206.62C58.17 206.62 50.93 200.07 50.22 191.42C48.08 165.4 57.04 139.29 74.78 119.78C92.15 100.68 116.31 89.53 141.05 89.21C150.11 89 157.69 96.4 157.82 105.53C157.93 114.68 150.63 122.18 141.49 122.3C125.87 122.5 110.49 129.7 99.26 142.04Z" id="b1hunA7M4A"></path></defs><g><g><g><use xlink:href="#a1pszFeKS1" opacity="1" fill="#ffffff" fill-opacity="1"></use></g><g><use xlink:href="#b1hunA7M4A" opacity="1" fill="#e35353" fill-opacity="1"></use><g><use xlink:href="#b1hunA7M4A" opacity="1" fill-opacity="0" stroke="#000000" stroke-width="1" stroke-opacity="0"></use></g></g></g></g></svg>