<?xml version="1.0"?>
<svg xmlns="http://www.w3.org/2000/svg" viewBox="0 0 512 512" width="512" height="512"><g id="filled_outline" data-name="filled outline"><path d="M373.3,303.906a248.125,248.125,0,0,0-72-108.265h0A38.96,38.96,0,0,1,290,154l6-18,7.635-7.636A47.107,47.107,0,0,0,315.511,108.4c.041-.139.083-.279.124-.419a47.166,47.166,0,0,0-1.88-31.882L312,72l16-48H296l-40,80L216,24H184l16,48-1.755,4.1a47.166,47.166,0,0,0-1.88,31.882c.041.14.083.28.124.419a47.107,47.107,0,0,0,11.876,19.961L216,136l6,18A38.96,38.96,0,0,1,210.7,195.641h0q-2.457,2.15-4.851,4.359A248.115,248.115,0,0,0,138.7,303.906L88,456h56v16h64v16h96V472h64V456h56Z" style="fill:#ffb3b3"/><path d="M144.007,480a8.008,8.008,0,0,1-7.8-9.8l48-208a8,8,0,1,1,15.59,3.6l-48,208A8,8,0,0,1,144.007,480Z" style="fill:#faa6b2"/><path d="M208.01,496a8,8,0,0,1-7.929-9.133l32-224a8,8,0,1,1,15.838,2.264l-32,224A8,8,0,0,1,208.01,496Z" style="fill:#faa6b2"/><path d="M367.993,480a8,8,0,0,1-7.788-6.2l-48-208a8,8,0,0,1,15.59-3.6l48,208a8.008,8.008,0,0,1-7.8,9.8Z" style="fill:#faa6b2"/><path d="M303.99,496a8,8,0,0,1-7.909-6.869l-32-224a8,8,0,1,1,15.838-2.264l32,224A8,8,0,0,1,303.99,496Z" style="fill:#faa6b2"/><path d="M136,128h0a50.6,50.6,0,0,1-32,32h0l12.82,8.547a50.6,50.6,0,0,1,17.189,19.471L136,192l1.991-3.982a50.6,50.6,0,0,1,17.189-19.471L168,160h0a50.6,50.6,0,0,1-32-32Z" style="fill:#fbb540"/><path d="M384,40h0a50.6,50.6,0,0,1-32,32h0l12.82,8.547a50.6,50.6,0,0,1,17.189,19.471L384,104l1.991-3.982A50.6,50.6,0,0,1,403.18,80.547L416,72h0a50.6,50.6,0,0,1-32-32Z" style="fill:#fbb540"/><path d="M432,112h0a50.6,50.6,0,0,1-32,32h0l12.82,8.547a50.6,50.6,0,0,1,17.189,19.471L432,176l1.991-3.982a50.6,50.6,0,0,1,17.189-19.471L464,144h0a50.6,50.6,0,0,1-32-32Z" style="fill:#fbb540"/><path d="M380.892,301.376a256.349,256.349,0,0,0-74.32-111.756,30.958,30.958,0,0,1-8.983-33.089l5.4-16.21,6.3-6.3a55.28,55.28,0,0,0,13.9-23.364l.121-.411a55.281,55.281,0,0,0-2.2-37.291l-.56-1.308L335.589,26.53A8,8,0,0,0,328,16H296a8,8,0,0,0-7.155,4.422L256,86.111,223.155,20.422A8,8,0,0,0,216,16H184a8,8,0,0,0-7.589,10.53L191.45,71.647l-.56,1.308a55.291,55.291,0,0,0-2.2,37.293l.124.422a55.282,55.282,0,0,0,13.892,23.351l6.3,6.3,5.4,16.211a30.962,30.962,0,0,1-8.986,33.09c-1.685,1.475-3.368,2.988-5.006,4.5a256.778,256.778,0,0,0-69.311,107.256L80.411,453.47A8,8,0,0,0,88,464h49.636l-1.431,6.2A8,8,0,0,0,144,480h57.062l-.981,6.868A8,8,0,0,0,208,496h96a8,8,0,0,0,7.919-9.132L310.938,480H368a8,8,0,0,0,7.8-9.8l-1.431-6.2H424a8,8,0,0,0,7.589-10.53ZM370.672,448,327.8,262.2a8,8,0,0,0-15.59,3.6L357.943,464h-49.29L279.919,262.868a8,8,0,1,0-15.838,2.264L294.776,480H217.224l30.7-214.868a8,8,0,1,0-15.838-2.264L203.347,464h-49.29L199.8,265.8a8,8,0,1,0-15.59-3.6L141.328,448H99.1l47.188-141.563a240.726,240.726,0,0,1,64.981-100.556c1.538-1.419,3.118-2.839,4.695-4.22a46.957,46.957,0,0,0,13.626-50.189l-6-18a7.989,7.989,0,0,0-1.932-3.126l-7.636-7.637a39.207,39.207,0,0,1-9.856-16.558l-.126-.428A39.24,39.24,0,0,1,205.6,79.248l1.754-4.1a8,8,0,0,0,.234-5.676L195.1,32h15.956l37.789,75.578a8,8,0,0,0,14.31,0L300.944,32H316.9L304.411,69.47a8,8,0,0,0,.234,5.676l1.754,4.1a39.262,39.262,0,0,1,1.556,26.5l-.116.394a39.225,39.225,0,0,1-9.86,16.57l-7.636,7.636a8,8,0,0,0-1.932,3.127l-6,18a46.957,46.957,0,0,0,13.626,50.189,240.335,240.335,0,0,1,69.677,104.776L412.9,448Z"/><path d="M99.562,166.656l12.821,8.547A42.668,42.668,0,0,1,126.854,191.6l1.991,3.982a8,8,0,0,0,14.31,0l1.991-3.982A42.668,42.668,0,0,1,159.617,175.2l12.821-8.547a8,8,0,0,0-1.908-14.246,42.8,42.8,0,0,1-26.941-26.94,8,8,0,0,0-15.178,0,42.8,42.8,0,0,1-26.941,26.94,8,8,0,0,0-1.908,14.246ZM136,145.567a59.178,59.178,0,0,0,15.992,15.491l-1.25.833A58.683,58.683,0,0,0,136,175.988a58.683,58.683,0,0,0-14.742-14.1l-1.25-.833A59.178,59.178,0,0,0,136,145.567Z"/><path d="M347.562,78.656,360.383,87.2A42.668,42.668,0,0,1,374.854,103.6l1.991,3.982a8,8,0,0,0,14.31,0l1.991-3.982A42.668,42.668,0,0,1,407.617,87.2l12.821-8.547A8,8,0,0,0,418.53,64.41a42.8,42.8,0,0,1-26.941-26.94,8,8,0,0,0-15.178,0A42.8,42.8,0,0,1,349.47,64.41a8,8,0,0,0-1.908,14.246ZM384,57.567a59.178,59.178,0,0,0,15.992,15.491l-1.25.833A58.683,58.683,0,0,0,384,87.988a58.683,58.683,0,0,0-14.742-14.1l-1.25-.833A59.178,59.178,0,0,0,384,57.567Z"/><path d="M471.929,142.938a8,8,0,0,0-5.4-6.528,42.8,42.8,0,0,1-26.941-26.94,8,8,0,0,0-15.178,0,42.8,42.8,0,0,1-26.941,26.94,8,8,0,0,0-1.908,14.246l12.821,8.547A42.668,42.668,0,0,1,422.854,175.6l1.991,3.982a8,8,0,0,0,14.31,0l1.991-3.982A42.668,42.668,0,0,1,455.617,159.2l12.821-8.547A8,8,0,0,0,471.929,142.938Zm-25.187,2.953A58.683,58.683,0,0,0,432,159.988a58.683,58.683,0,0,0-14.742-14.1l-1.25-.833A59.178,59.178,0,0,0,432,129.567a59.178,59.178,0,0,0,15.992,15.491Z"/></g></svg>
