<?xml version="1.0"?>
<svg xmlns="http://www.w3.org/2000/svg" viewBox="0 0 512 512" width="512" height="512"><g id="outline"><path d="M90.471,182.38a29.372,29.372,0,0,0-29.187,25.038L48.093,293.163a8.009,8.009,0,0,0,.1,2.952l16,72a8.014,8.014,0,0,0,2.153,3.922l40,40,.02.019c.1.1.2.184.305.275s.206.191.314.278l.02.018,37,29.6V486.38a8,8,0,0,0,8,8h80a8,8,0,0,0,8-8v-81.5a81.094,81.094,0,0,0-23.907-57.72l-3.795-3.794a81.926,81.926,0,0,0-56.525-23.9l-30.9-37.947A30.361,30.361,0,0,0,120,276.745V211.909A29.563,29.563,0,0,0,90.471,182.38ZM145.8,332.553a8,8,0,0,0,6.483,2.943,65.9,65.9,0,0,1,48.7,19.182l3.794,3.794A65.191,65.191,0,0,1,224,404.877v73.5H160v-40a8,8,0,0,0-3-6.247l-39.648-31.719L79.3,362.37,64.136,294.111,77.1,209.852a13.529,13.529,0,0,1,26.9,2.057V270.5c-.849-.071-1.7-.119-2.563-.119a30.224,30.224,0,0,0-26.534,44.7L101.5,363.831a8,8,0,0,0,14.047-7.662L88.95,307.414a14.224,14.224,0,0,1,23.517-15.792Z"/><path d="M376,166.38a119.261,119.261,0,0,0-12.508-53.3,7.919,7.919,0,0,0-.654-1.313,120.455,120.455,0,0,0-14.37-21.79,8.043,8.043,0,0,0-1.2-1.42,119.956,119.956,0,1,0,18.576,126.112,7.988,7.988,0,0,0,.548-1.25A119.329,119.329,0,0,0,376,166.38Zm-24.41-2.53a8,8,0,0,0-13.247-3.127L326.98,172.086l-15.969-10.647-6.532-26.128,3.574-7.148,17.417,5.807a8.011,8.011,0,0,0,6.108-.435l15.041-7.52,4.808-.962a104.058,104.058,0,0,1,7.009,59.334ZM296,70.384a104.181,104.181,0,0,1,26.378,16H300.944L296,76.491Zm-59.978-6.071,8.7,17.394L229.47,86.79a8,8,0,0,0-4.625,4.012l-6.355,12.709-28.43,7.108a8,8,0,0,0-5.65,10.291l6.437,19.309-6.184,6.183-21.5-26.87A104.351,104.351,0,0,1,236.022,64.313ZM256,270.38a104.01,104.01,0,0,1-99.654-133.762l21.407,26.759a8,8,0,0,0,5.805,2.99c.147.009.3.013.442.013a8,8,0,0,0,5.657-2.343l16-16a8,8,0,0,0,1.933-8.187l-5.269-15.8,23.619-5.905a8,8,0,0,0,5.215-4.183l6.519-13.036L258.53,93.97A8,8,0,0,0,263.155,82.8L252.968,62.427c1.008-.029,2.018-.047,3.032-.047a103.939,103.939,0,0,1,24,2.8v13.2a7.994,7.994,0,0,0,.845,3.578l8,16A8,8,0,0,0,296,102.38h41.92q3,3.827,5.636,7.93l-1.125.225a7.989,7.989,0,0,0-2.009.69l-13.036,6.517L306.53,110.79a8,8,0,0,0-9.685,4.012l-8,16a7.99,7.99,0,0,0-.606,5.518l8,32a8,8,0,0,0,3.323,4.716l24,16a8,8,0,0,0,10.095-1l6.847-6.848,9.724,29.173A104.134,104.134,0,0,1,256,270.38Z"/><path d="M290.53,182.79l-22.984-7.661-23.108-15.4A8.005,8.005,0,0,0,240,158.38H216a8,8,0,0,0-5.657,2.343l-16,16a8,8,0,0,0-1.5,9.235l6.517,13.036L192.41,219.85a8,8,0,0,0,2.79,8.93l32,24a8,8,0,0,0,8.916.46l40-24a8,8,0,0,0,3.039-3.282l16-32a8,8,0,0,0-4.625-11.168Zm-24.643,33.929L232.5,236.752l-23.084-17.313,6.177-18.529a8,8,0,0,0-.435-6.108l-5.421-10.842,9.579-9.58h18.265l21.984,14.656a8.043,8.043,0,0,0,1.908.934l15.25,5.083Z"/><path d="M295.907,347.157A81.094,81.094,0,0,0,272,404.877v81.5a8,8,0,0,0,8,8h80a8,8,0,0,0,8-8V442.225l37-29.6.02-.018c.108-.087.209-.184.314-.278s.208-.18.305-.275l.02-.019,40-40a8.014,8.014,0,0,0,2.153-3.922l16-72a8.009,8.009,0,0,0,.1-2.952l-13.191-85.745A29.53,29.53,0,0,0,392,211.909v64.836a30.361,30.361,0,0,0-4.873,4.774l-30.9,37.947a81.941,81.941,0,0,0-56.526,23.9Zm15.108,7.521A65.958,65.958,0,0,1,359.72,335.5a8.086,8.086,0,0,0,6.483-2.943l33.33-40.931a14.224,14.224,0,0,1,23.517,15.792l-26.594,48.755a8,8,0,0,0,14.047,7.662L437.1,315.076a30.224,30.224,0,0,0-26.534-44.7c-.861,0-1.714.048-2.563.119v-58.59a13.529,13.529,0,0,1,26.9-2.057l12.963,84.259L432.7,362.37l-38.045,38.044L355,432.133a8,8,0,0,0-3,6.247v40H288v-73.5a65.191,65.191,0,0,1,19.222-46.405Z"/></g></svg>
