<?xml version="1.0" encoding="UTF-8" standalone="no"?>
<!DOCTYPE svg PUBLIC "-//W3C//DTD SVG 1.1//EN" "http://www.w3.org/Graphics/SVG/1.1/DTD/svg11.dtd">
<svg version="1.1" xmlns="http://www.w3.org/2000/svg" xmlns:xlink="http://www.w3.org/1999/xlink" preserveAspectRatio="xMidYMid meet" viewBox="0 0 640 640" width="640" height="640"><defs><path d="M397.94 33.07C366.86 33.07 340.71 47.55 320 76.18C299.29 47.55 273.14 33.07 242.06 33.07C166.4 33.07 138.21 100.62 138.21 143.2C138.21 216.6 196.18 262.52 275.38 329.44C287.02 339.28 299.06 349.45 311.89 360.45C314.21 362.44 317.11 363.44 320 363.44C322.89 363.44 325.79 362.44 328.11 360.45C340.94 349.45 352.98 339.28 364.62 329.44C447.53 259.38 501.79 215.05 501.79 143.2C501.79 100.62 473.6 33.07 397.94 33.07ZM291.48 310.84C208.62 240.83 162.97 202.26 162.97 143.2C162.97 103.13 189.5 57.54 242.06 57.54C269.49 57.54 291.43 73.11 309.14 105.12C311.31 109.05 315.47 111.49 320 111.49C324.53 111.49 328.69 109.05 330.86 105.12C348.57 73.11 370.51 57.54 397.94 57.54C449.77 57.54 477.03 102.45 477.03 143.2C477.03 202.26 431.38 240.83 348.52 310.84C339.33 318.61 329.89 326.58 320 335.02C310.11 326.58 300.67 318.61 291.48 310.84Z" id="ad6Oww8M0"></path><path d="M151.61 542.3C151.61 581.81 151.61 603.76 151.61 608.15C151.61 614.91 157.15 620.39 163.99 620.39C177.11 620.39 282.11 620.39 295.24 620.39C302.07 620.39 307.62 614.91 307.62 608.15C307.62 592.18 307.62 464.39 307.62 448.42C307.62 410.93 279.16 379.84 241.52 376.11C241.42 376.1 240.61 376.01 240.5 376C218.72 373.85 180.14 359.12 164.9 344.07C162.12 341.32 139.88 319.34 137.1 316.6C127.74 307.35 115.3 302.26 102.08 302.26C102.08 292.47 102.08 214.16 102.08 204.37C102.08 177.39 79.86 155.43 52.55 155.43C25.24 155.43 3.02 177.39 3.02 204.37C3.02 221 3.02 353.96 3.02 370.58C3.02 430.8 37.44 485.89 92 512.85C99.95 516.78 119.82 526.6 151.61 542.3ZM27.79 204.37C27.79 190.88 38.9 179.9 52.55 179.9C66.21 179.9 77.32 190.88 77.32 204.37C77.32 214.82 77.32 298.38 77.32 308.82C62.21 317.45 52.55 333.54 52.55 351.2C52.55 364.27 57.71 376.56 67.06 385.81C73.4 392.07 124.13 442.21 130.47 448.48C135.3 453.26 143.14 453.26 147.98 448.48C152.82 443.7 152.82 435.95 147.98 431.18C141.64 424.91 90.91 374.77 84.57 368.5C79.89 363.88 77.32 357.73 77.32 351.2C77.32 340.85 83.95 331.57 93.82 328.13C93.82 328.13 93.83 328.12 93.83 328.12C93.83 328.12 93.83 328.12 93.84 328.12C102.38 325.13 112.51 326.91 119.59 333.91C122.37 336.65 144.61 358.63 147.39 361.37C176.1 389.74 238.83 400.42 238.95 400.45C263.98 402.93 282.85 423.55 282.85 448.42C282.85 458.25 282.85 507.42 282.85 595.92L176.37 595.92C176.37 559.21 176.37 538.82 176.37 534.74C176.37 530.1 173.72 525.87 169.52 523.8C162.88 520.51 109.72 494.25 103.07 490.97C56.64 468.02 27.79 421.89 27.79 370.58C27.79 337.34 27.79 237.62 27.79 204.37Z" id="f438nbO"></path><path d="M571.35 471.11C564.51 471.11 558.97 476.59 558.97 483.35C558.97 490.11 564.51 495.59 571.35 495.59C578.19 495.59 583.73 490.11 583.73 483.35C583.73 476.59 578.19 471.11 571.35 471.11Z" id="a7PCyGaLI"></path><path d="M537.92 204.37C537.92 214.16 537.92 292.47 537.92 302.26C524.7 302.26 512.26 307.35 502.91 316.6C500.12 319.35 477.88 341.32 475.09 344.07C459.86 359.12 421.28 373.85 399.4 376.01C399.32 376.02 398.66 376.09 398.58 376.1C360.84 379.84 332.38 410.93 332.38 448.42C332.38 464.39 332.38 592.18 332.38 608.15C332.38 614.91 337.93 620.39 344.76 620.39C357.89 620.39 462.89 620.39 476.01 620.39C482.85 620.39 488.39 614.91 488.39 608.15C488.39 603.76 488.39 581.81 488.39 542.3C512.71 530.29 526.22 523.62 528.92 522.28C535.03 519.26 537.51 511.91 534.46 505.87C531.4 499.82 523.96 497.37 517.85 500.39C513.11 502.73 475.21 521.46 470.47 523.8C466.28 525.87 463.63 530.1 463.63 534.74C463.63 538.82 463.63 559.21 463.63 595.92L357.15 595.92C357.15 507.42 357.15 458.25 357.15 448.42C357.15 423.55 376.02 402.93 401.14 400.44C401.23 400.43 401.88 400.36 401.96 400.35C428.82 397.69 473.29 380.46 492.6 361.37C495.38 358.63 517.63 336.65 520.41 333.9C527.51 326.89 537.66 325.14 546.16 328.12C546.16 328.12 546.17 328.12 546.17 328.12C546.17 328.12 546.17 328.12 546.18 328.13C556.05 331.57 562.68 340.85 562.68 351.2C562.68 357.73 560.11 363.88 555.43 368.5C549.09 374.77 498.36 424.91 492.02 431.18C487.18 435.95 487.19 443.7 492.02 448.48C496.85 453.26 504.7 453.26 509.53 448.48C515.87 442.21 566.6 392.08 572.94 385.81C582.29 376.56 587.45 364.27 587.45 351.2C587.45 333.54 577.79 317.45 562.68 308.82C562.68 298.38 562.68 214.82 562.68 204.37C562.68 190.88 573.79 179.9 587.45 179.9C601.1 179.9 612.21 190.88 612.21 204.37C612.21 221 612.21 353.96 612.21 370.58C612.21 392.97 606.5 415.2 595.68 434.86C592.41 440.79 594.63 448.22 600.64 451.45C606.65 454.68 614.17 452.48 617.43 446.55C630.22 423.31 636.98 397.04 636.98 370.58C636.98 353.96 636.98 221 636.98 204.37C636.98 177.39 614.76 155.43 587.45 155.43C560.14 155.43 537.92 177.39 537.92 204.37Z" id="b2TXOlX6oW"></path></defs><g><g><g><use xlink:href="#ad6Oww8M0" opacity="1" fill="#ffffff" fill-opacity="1"></use><g><use xlink:href="#ad6Oww8M0" opacity="1" fill-opacity="0" stroke="#000000" stroke-width="1" stroke-opacity="0"></use></g></g><g><use xlink:href="#f438nbO" opacity="1" fill="#ffffff" fill-opacity="1"></use><g><use xlink:href="#f438nbO" opacity="1" fill-opacity="0" stroke="#000000" stroke-width="1" stroke-opacity="0"></use></g></g><g><use xlink:href="#a7PCyGaLI" opacity="1" fill="#ffffff" fill-opacity="1"></use><g><use xlink:href="#a7PCyGaLI" opacity="1" fill-opacity="0" stroke="#000000" stroke-width="1" stroke-opacity="0"></use></g></g><g><use xlink:href="#b2TXOlX6oW" opacity="1" fill="#ffffff" fill-opacity="1"></use><g><use xlink:href="#b2TXOlX6oW" opacity="1" fill-opacity="0" stroke="#000000" stroke-width="1" stroke-opacity="0"></use></g></g></g></g></svg>