<?xml version="1.0" encoding="UTF-8" standalone="no"?>
<!DOCTYPE svg PUBLIC "-//W3C//DTD SVG 1.1//EN" "http://www.w3.org/Graphics/SVG/1.1/DTD/svg11.dtd">
<svg version="1.1" xmlns="http://www.w3.org/2000/svg" xmlns:xlink="http://www.w3.org/1999/xlink" preserveAspectRatio="xMidYMid meet" viewBox="0 0 640 640" width="640" height="640"><defs><path d="M416.88 257.51C416.88 253.35 416.88 220.04 416.88 215.87C416.88 207.58 418.62 194.12 422.05 175.87C423.02 170.74 419.7 165.78 414.65 164.81C409.59 163.83 404.72 167.19 403.76 172.33C401.11 186.36 399.45 197.63 398.7 206.43C382.96 206.43 257.02 206.43 241.27 206.43C238.52 174.28 224.19 117.03 220.63 103.12C224.05 95.04 229.38 89.73 236.85 86.91C260.9 77.86 301.69 96.41 315.38 104.33C318.24 105.98 321.75 105.98 324.6 104.33C338.31 96.41 379.11 77.85 403.16 86.91C410.62 89.73 415.95 95.05 419.38 103.12C417.99 108.51 414.93 120.66 411.61 135.16C410.44 140.26 413.56 145.33 418.56 146.52C423.58 147.7 428.58 144.54 429.75 139.46C434.18 120.15 438.11 105.12 438.16 104.97C438.63 103.12 438.55 101.17 437.92 99.38C433.86 87.78 427.21 79.09 418.09 73.38C417.23 60.25 412.46 28.63 386.98 6.51C384.88 4.7 382.11 3.9 379.39 4.37C376.68 4.82 374.31 6.47 372.91 8.88C372.1 10.25 354.4 40.9 351.88 71.97C350.47 72.45 349.04 72.91 347.58 73.43C335.59 77.62 325.54 82.5 320 85.4C314.45 82.5 304.41 77.62 292.4 73.43C290.96 72.91 289.54 72.45 288.11 71.97C285.58 40.9 267.9 10.25 267.09 8.88C265.69 6.47 263.32 4.82 260.6 4.37C257.89 3.9 255.11 4.7 253.02 6.51C227.53 28.63 222.75 60.26 221.91 73.38C212.79 79.09 206.14 87.78 202.07 99.38C201.44 101.17 201.37 103.12 201.85 104.97C202.07 105.77 223.11 186.56 223.11 215.87C223.11 220.04 223.11 253.35 223.11 257.51C212.93 275.95 136.3 412.09 41.79 507.96C39.93 509.85 38.95 512.45 39.08 515.11C39.21 517.79 40.45 520.27 42.48 521.96C43.51 522.8 66.02 541.3 104.98 561.98C104.97 561.98 104.96 561.99 104.96 562.01C103.38 564.04 102.68 566.63 103.05 569.19C103.4 571.75 104.78 574.04 106.85 575.54C107.56 576.07 124.76 588.47 154.51 602.35C155.78 602.93 157.09 603.21 158.4 603.21C161.92 603.21 165.3 601.16 166.87 597.71C169.01 592.96 166.97 587.35 162.3 585.17C145.82 577.48 133.35 570.23 125.83 565.54C201.65 464.6 260.97 325.84 261.57 324.41C263.6 319.63 261.43 314.07 256.71 312C251.98 309.93 246.5 312.14 244.46 316.94C243.88 318.3 188.23 448.44 116.45 546.72C91.06 533.44 72.43 520.81 62.49 513.58C151.53 420.43 223.3 295.53 237.88 269.41C254.3 269.41 385.68 269.41 402.1 269.41C416.7 295.53 488.47 420.43 577.5 513.58C567.59 520.8 549 533.42 523.54 546.72C451.76 448.44 396.1 318.3 395.52 316.94C393.5 312.14 388.01 309.93 383.29 312C378.56 314.07 376.39 319.63 378.42 324.41C379.03 325.84 438.34 464.58 514.15 565.53C490.28 580.39 416.11 621.1 320 621.1C278.67 621.1 236.96 613.68 196.05 599.03C191.19 597.29 185.88 599.88 184.17 604.8C182.47 609.72 185.01 615.12 189.86 616.86C232.76 632.21 276.56 640 320 640C442.9 640 529.51 578.18 533.14 575.54C535.22 574.04 536.58 571.75 536.94 569.19C537.3 566.63 536.62 564.04 535.04 562.01C535.03 561.99 535.02 561.98 535.02 561.98C573.97 541.3 596.48 522.8 597.5 521.96C599.54 520.27 600.78 517.79 600.92 515.11C601.04 512.45 600.06 509.85 598.2 507.96C503.69 412.09 427.06 275.95 416.88 257.51ZM398.5 66.34C390.37 65.1 381.25 65.35 371.23 67.1C373.46 52.94 378.95 39.01 383.25 29.72C392.9 42.1 396.87 56.38 398.5 66.34ZM268.77 67.1C258.75 65.35 249.63 65.1 241.49 66.34C243.12 56.38 247.09 42.1 256.75 29.72C261.05 39.01 266.53 52.94 268.77 67.1ZM398.26 250.51L241.74 250.51L241.74 225.33L398.26 225.33L398.26 250.51Z" id="a1qidCd1zE"></path></defs><g><g><g><use xlink:href="#a1qidCd1zE" opacity="1" fill="#ffffff" fill-opacity="1"></use><g><use xlink:href="#a1qidCd1zE" opacity="1" fill-opacity="0" stroke="#000000" stroke-width="1" stroke-opacity="0"></use></g></g></g></g></svg>