<?xml version="1.0" encoding="UTF-8" standalone="no"?>
<!DOCTYPE svg PUBLIC "-//W3C//DTD SVG 1.1//EN" "http://www.w3.org/Graphics/SVG/1.1/DTD/svg11.dtd">
<svg version="1.1" xmlns="http://www.w3.org/2000/svg" xmlns:xlink="http://www.w3.org/1999/xlink" preserveAspectRatio="xMidYMid meet" viewBox="0 0 640 640" width="640" height="640"><defs><path d="M565.33 576C565.33 440.87 565.33 365.8 565.33 350.78C568.84 351.56 572.41 351.96 576 352C605.44 351.97 629.3 328.11 629.33 298.67C629.33 297.89 629.25 297.11 629.08 296.35C626.94 286.75 609.88 209.95 607.74 200.35C606.66 195.47 602.33 192 597.33 192C595.2 192 584.53 192 565.33 192C565.33 172.8 565.33 162.13 565.33 160C565.33 154.11 560.56 149.33 554.67 149.33C548.98 149.33 520.53 149.33 469.33 149.33L469.33 128C482.13 128 489.24 128 490.67 128C496.56 128 501.33 123.22 501.33 117.33C501.33 106.67 501.33 21.33 501.33 10.67C501.33 4.78 496.56 0 490.67 0C456.53 0 183.47 0 149.33 0C143.44 0 138.67 4.78 138.67 10.67C138.67 21.33 138.67 106.67 138.67 117.33C138.67 123.22 143.44 128 149.33 128C150.76 128 157.87 128 170.67 128L170.67 149.33C119.47 149.33 91.02 149.33 85.33 149.33C79.44 149.33 74.67 154.11 74.67 160C74.67 162.13 74.67 172.8 74.67 192C55.47 192 44.8 192 42.67 192C37.67 192 33.34 195.47 32.26 200.35C30.12 209.95 13.06 286.75 10.92 296.35C10.75 297.11 10.67 297.89 10.67 298.67C10.7 328.11 34.56 351.97 64 352C67.59 351.96 71.16 351.56 74.67 350.78C74.67 365.8 74.67 440.87 74.67 576C36.27 576 14.93 576 10.67 576C4.78 576 0 580.78 0 586.67C0 590.93 0 625.07 0 629.33C0 635.22 4.78 640 10.67 640C72.53 640 567.47 640 629.33 640C635.22 640 640 635.22 640 629.33C640 625.07 640 590.93 640 586.67C640 580.78 635.22 576 629.33 576C620.8 576 599.47 576 565.33 576ZM608 299.73C607.42 316.99 593.27 330.68 576 330.67C570.38 330.67 564.85 329.17 560 326.33C552.53 321.98 547.13 314.82 545 306.44C544.31 303.91 543.97 301.29 544 298.67C544 298.27 543.98 297.88 543.94 297.49C543.31 291.88 540.19 263.83 534.58 213.33L588.8 213.33C600.32 265.17 606.72 293.97 608 299.73ZM384 405.33C378.11 405.33 373.33 410.11 373.33 416C373.33 426.67 373.33 480 373.33 576L96 576C96 434.97 96 356.62 96 340.95C100.03 337.97 103.62 334.44 106.67 330.45C124.06 354.02 157.27 359.02 180.83 341.62C185.09 338.48 188.86 334.71 192 330.45C209.4 354.02 242.6 359.02 266.17 341.62C270.43 338.48 274.19 334.71 277.33 330.45C294.73 354.02 327.94 359.02 351.5 341.62C355.76 338.48 359.52 334.71 362.67 330.45C380.06 354.02 413.27 359.02 436.83 341.62C441.09 338.48 444.86 334.71 448 330.45C465.41 354.02 498.62 359.01 522.18 341.6C526.43 338.46 530.19 334.7 533.33 330.45C536.37 334.43 539.97 337.95 544 340.92C544 356.59 544 434.95 544 576L501.33 576C501.33 480 501.33 426.67 501.33 416C501.33 410.11 496.56 405.33 490.67 405.33C469.33 405.33 394.67 405.33 384 405.33ZM480 576L394.67 576L394.67 426.67L480 426.67L480 576ZM126.93 213.33L190.81 213.33C185.19 263.83 182.07 291.88 181.45 297.49C181.39 297.88 181.35 298.27 181.33 298.67C181.36 301.38 181 304.09 180.27 306.7C175.76 323.79 158.26 333.99 141.17 329.48C129.93 326.52 121.18 317.7 118.31 306.44C117.67 304.09 117.34 301.66 117.33 299.22C118.61 287.77 121.81 259.14 126.93 213.33ZM212.27 213.33L266.67 213.33C266.67 264.53 266.67 292.98 266.67 298.67C266.69 301.38 266.33 304.09 265.6 306.7C261.09 323.79 243.59 333.99 226.5 329.48C215.26 326.52 206.52 317.7 203.65 306.44C203 304.09 202.67 301.66 202.67 299.22C203.95 287.77 207.15 259.14 212.27 213.33ZM288 213.33L352 213.33C352 264.53 352 292.98 352 298.67C352.03 301.38 351.67 304.09 350.93 306.7C346.43 323.79 328.92 333.99 311.83 329.48C300.6 326.52 291.85 317.7 288.98 306.44C288.29 303.91 287.96 301.29 288 298.67C288 287.29 288 258.84 288 213.33ZM373.33 213.33L427.73 213.33C433.49 264.87 436.69 293.5 437.33 299.22C437.31 301.75 436.95 304.26 436.27 306.69C431.76 323.78 414.26 333.98 397.17 329.47C385.93 326.51 377.18 317.69 374.31 306.43C373.63 303.9 373.3 301.29 373.33 298.67C373.33 287.29 373.33 258.84 373.33 213.33ZM513.12 213.33C518.88 264.87 522.08 293.5 522.72 299.22C522.69 301.75 522.33 304.26 521.65 306.69C517.15 323.78 499.64 333.98 482.55 329.47C471.32 326.51 462.57 317.69 459.7 306.43C459 303.9 458.65 301.29 458.67 298.67C458.67 298.27 458.65 297.88 458.6 297.49C457.98 291.88 454.86 263.83 449.25 213.33L513.12 213.33ZM160 21.33L480 21.33L480 106.67L160 106.67L160 21.33ZM448 149.33L192 149.33L192 128L448 128L448 149.33ZM544 170.67L544 192L96 192L96 170.67L544 170.67ZM32 299.73C33.28 293.97 39.68 265.17 51.2 213.33L105.4 213.33C99.78 263.83 96.67 291.88 96.04 297.49C96.01 297.88 95.99 298.27 96 298.67C96.02 301.37 95.66 304.07 94.93 306.68C92.78 314.96 87.4 322.04 80 326.33C75.15 329.17 69.62 330.67 64 330.67C46.73 330.68 32.58 316.99 32 299.73ZM21.33 618.67L21.33 597.33L618.67 597.33L618.67 618.67L21.33 618.67Z" id="aMcQcfk79"></path><path d="M149.33 405.33C143.44 405.33 138.67 410.11 138.67 416C138.67 426.67 138.67 512 138.67 522.67C138.67 528.56 143.44 533.33 149.33 533.33C166.4 533.33 302.93 533.33 320 533.33C325.89 533.33 330.67 528.56 330.67 522.67C330.67 512 330.67 426.67 330.67 416C330.67 410.11 325.89 405.33 320 405.33C285.87 405.33 166.4 405.33 149.33 405.33ZM160 512L160 426.67L309.33 426.67L309.33 512L160 512Z" id="dDFQ3fxTc"></path></defs><g><g><g><use xlink:href="#aMcQcfk79" opacity="1" fill="#ffffff" fill-opacity="1"></use><g><use xlink:href="#aMcQcfk79" opacity="1" fill-opacity="0" stroke="#000000" stroke-width="1" stroke-opacity="0"></use></g></g><g><use xlink:href="#dDFQ3fxTc" opacity="1" fill="#ffffff" fill-opacity="1"></use><g><use xlink:href="#dDFQ3fxTc" opacity="1" fill-opacity="0" stroke="#000000" stroke-width="1" stroke-opacity="0"></use></g></g></g></g></svg>